<svg width="71" height="20" viewBox="0 0 71 20" fill="none" xmlns="http://www.w3.org/2000/svg">
<g clip-path="url(#clip0_379_4140)">
<path d="M6.94336 1.38867L14.6683 5.49976V14.4997L6.94336 18.6108V1.38867Z" fill="black"/>
<path d="M7.77604 2.775L13.8344 6V13.9972L7.77604 17.2222V2.775ZM6.10938 0V20L15.501 15V5L6.10938 0Z" fill="black"/>
<path d="M3.30664 0V20L4.70942 19.2528V0.747222L3.30664 0Z" fill="black"/>
<path d="M0.5 0V20L1.90278 19.2528V0.747222L0.5 0Z" fill="black"/>
</g>
<path d="M70.8215 15.0024H65.3613V13.6339L68.7277 9.63802H65.3613V8.24219H70.8215V9.62433L67.4003 13.6066H70.8215V15.0024Z" fill="black"/>
<path d="M57.84 18.1381V16.7423H58.839C59.4958 16.7423 59.9064 16.5917 60.1938 15.798L60.3853 15.2917L57.6621 8.24414H59.4274L61.1654 13.1706L62.9991 8.24414H64.7234L61.4117 16.5096C60.9054 17.7686 60.1938 18.2886 59.0853 18.2886C58.62 18.2886 58.2095 18.2339 57.84 18.1381Z" fill="black"/>
<path d="M52.1834 15.0024H50.2812L52.6076 11.6907L50.2812 8.24219H52.2245L53.7161 10.5412L55.153 8.24219H57.0278L54.7287 11.6633L56.9593 15.0024H55.0435L53.6066 12.7718L52.1834 15.0024Z" fill="black"/>
<path d="M47.8721 15.168C47.27 15.168 46.7637 14.6754 46.7637 14.087C46.7637 13.4848 47.27 12.9922 47.8721 12.9922C48.4742 12.9922 48.9806 13.4848 48.9806 14.087C48.9806 14.6754 48.4742 15.168 47.8721 15.168Z" fill="black"/>
<path d="M40.4566 15.0026H38.7871V8.24238H40.3335L40.4703 9.11819C40.8945 8.43396 41.7156 8.03711 42.6325 8.03711C44.3294 8.03711 45.2052 9.09082 45.2052 10.8425V15.0026H43.5357V11.2393C43.5357 10.1035 42.9746 9.5561 42.1125 9.5561C41.0861 9.5561 40.4566 10.2677 40.4566 11.3625V15.0026Z" fill="black"/>
<path d="M35.5571 8.24414H37.2266V15.0043H35.6802L35.5571 14.1012C35.1465 14.7443 34.2707 15.1822 33.3675 15.1822C31.8075 15.1822 30.8906 14.1285 30.8906 12.4727V8.24414H32.5601V11.8842C32.5601 13.1706 33.0665 13.6906 33.997 13.6906C35.0507 13.6906 35.5571 13.0748 35.5571 11.7885V8.24414Z" fill="black"/>
<path d="M29.2258 10.9117H25.5036V15.0034H23.752V5H29.9374V6.61478H25.5036V9.33802H29.2258V10.9117Z" fill="black"/>
<defs>
<clipPath id="clip0_379_4140">
<rect width="15" height="20" fill="white" transform="translate(0.5)"/>
</clipPath>
</defs>
</svg>
